<svg width="168" height="35" viewBox="0 0 168 35" fill="none" xmlns="http://www.w3.org/2000/svg">
<g clip-path="url(#clip0_37632_763)">
<path d="M5.47089 20.9023C5.40471 20.8978 5.33835 20.9073 5.27621 20.9303C5.21408 20.9532 5.15762 20.9891 5.11071 21.0353C5.0638 21.0816 5.02756 21.1373 5.0043 21.1986C4.98105 21.2598 4.9714 21.3253 4.97598 21.3906V33.5963C4.97598 33.8553 4.8716 34.1037 4.68594 34.2868C4.50028 34.47 4.24852 34.5728 3.98596 34.5728H1.26346C1.00089 34.5728 0.749041 34.47 0.563381 34.2868C0.377721 34.1037 0.273438 33.8553 0.273438 33.5963V1.34261C0.273438 1.08364 0.377721 0.835323 0.563381 0.652201C0.749041 0.469079 1.00089 0.366222 1.26346 0.366222H10.1734C12.4636 0.336793 14.6987 1.05864 16.5276 2.41836C18.3566 3.77809 19.6757 5.69857 20.2777 7.87814C20.8798 10.0577 20.7306 12.3728 19.8536 14.4597C18.9767 16.5465 17.4215 18.2868 15.4327 19.4072C14.5046 19.9259 14.1334 20.3836 14.5975 21.238L20.4447 33.1386C20.551 33.2924 20.609 33.4737 20.6114 33.6598C20.6138 33.846 20.5605 34.0286 20.4581 34.185C20.3557 34.3413 20.2088 34.4644 20.0358 34.5388C19.8628 34.6132 19.6714 34.6357 19.4855 34.6033H16.7321C16.4159 34.6145 16.1043 34.5259 15.8428 34.3503C15.5812 34.1746 15.3834 33.9212 15.2781 33.6269L9.43088 21.4211C9.35502 21.2424 9.22536 21.0909 9.05936 20.9872C8.89336 20.8835 8.69908 20.8326 8.50279 20.8413L5.47089 20.9023ZM5.47089 5.03492C5.40471 5.0304 5.33835 5.03992 5.27621 5.06286C5.21408 5.08579 5.15762 5.12153 5.11071 5.1678C5.0638 5.21407 5.02756 5.26976 5.0043 5.33105C4.98105 5.39233 4.9714 5.45779 4.97598 5.52307V15.7759C4.9714 15.8412 4.98105 15.9067 5.0043 15.968C5.02756 16.0293 5.0638 16.0849 5.11071 16.1312C5.15762 16.1775 5.21408 16.2133 5.27621 16.2363C5.33835 16.2592 5.40471 16.2687 5.47089 16.2642H10.1734C11.6832 16.2642 13.131 15.6726 14.1986 14.6196C15.2661 13.5667 15.8659 12.1387 15.8659 10.6496C15.8659 9.16046 15.2661 7.73232 14.1986 6.67937C13.131 5.62642 11.6832 5.03492 10.1734 5.03492H5.47089Z" fill="#1A171B"/>
<path d="M48.1029 10.1613C48.5669 15.0329 48.5669 19.9366 48.1029 24.8082C47.9133 27.5926 46.6507 30.1998 44.5739 32.095C42.4971 33.9902 39.7637 35.0297 36.9345 35C34.0999 35.0595 31.353 34.0293 29.2746 32.1274C27.1961 30.2254 25.949 27.6007 25.797 24.8082C25.302 19.9381 25.302 15.0314 25.797 10.1613C26.001 7.39035 27.2648 4.79925 29.3326 2.91268C31.4004 1.02611 34.1178 -0.015034 36.9345 -2.15811e-06C39.7693 -0.0678334 42.5197 0.954593 44.604 2.85094C46.6883 4.74729 47.943 7.36892 48.1029 10.1613ZM30.4996 10.1613C30.0046 15.0314 30.0046 19.9381 30.4996 24.8082C30.6488 26.3674 31.4 27.8102 32.5978 28.8383C33.7956 29.8663 35.3483 30.4009 36.9345 30.3313C38.5259 30.409 40.0864 29.8781 41.2908 28.8493C42.4953 27.8204 43.251 26.3729 43.4004 24.8082C43.9573 19.9414 43.9573 15.0282 43.4004 10.1613C43.1613 8.6432 42.3797 7.2594 41.1968 6.25988C40.0139 5.26036 38.5076 4.71097 36.95 4.71097C35.3923 4.71097 33.886 5.26036 32.7031 6.25988C31.5202 7.2594 30.7386 8.6432 30.4996 10.1613Z" fill="#1A171B"/>
<path d="M74.8639 33.6269C74.8561 33.8834 74.7492 34.1273 74.5652 34.3088C74.3812 34.4903 74.1339 34.5956 73.8738 34.6033H69.7591C69.2022 34.6033 68.9548 34.4507 68.7073 33.7794L58.931 9.58152C58.931 9.53296 58.9116 9.48642 58.8767 9.45208C58.8419 9.41774 58.7946 9.39844 58.7454 9.39844C58.6962 9.39844 58.649 9.41774 58.6142 9.45208C58.5794 9.48642 58.5598 9.53296 58.5598 9.58152V33.5353C58.552 33.7919 58.4453 34.0358 58.2613 34.2173C58.0773 34.3988 57.83 34.5041 57.5699 34.5117H55.033C54.7704 34.5117 54.5186 34.4089 54.3329 34.2257C54.1473 34.0426 54.043 33.7943 54.043 33.5353V1.3426C54.043 1.08363 54.1473 0.835312 54.3329 0.65219C54.5186 0.469068 54.7704 0.366211 55.033 0.366211H59.1476C59.7045 0.366211 59.952 0.518779 60.1995 1.22061L69.9448 25.2964C69.9609 25.3361 69.9886 25.3701 70.0244 25.394C70.0603 25.4179 70.1025 25.4308 70.1458 25.4308C70.1891 25.4308 70.2315 25.4179 70.2673 25.394C70.3032 25.3701 70.3309 25.3361 70.3469 25.2964V1.43414C70.3469 1.17517 70.4513 0.926851 70.637 0.74373C70.8226 0.560608 71.0744 0.45775 71.337 0.45775H73.8738C74.1339 0.465414 74.3812 0.570717 74.5652 0.752204C74.7492 0.933691 74.8561 1.17759 74.8639 1.43414V33.6269Z" fill="#1A171B"/>
<path d="M112.824 10.1613C112.256 15.1278 111.22 20.0312 109.73 24.8082C107.936 30.2093 104.625 35 97.3552 35C95.9867 35.1085 94.6108 34.9163 93.3267 34.4371C92.0427 33.9579 90.8824 33.2036 89.9296 32.2288C88.9767 31.2539 88.255 30.0826 87.8164 28.7994C87.3778 27.5163 87.2333 26.1531 87.3933 24.8082C87.9285 19.8366 88.9649 14.9301 90.4871 10.1613C92.3124 4.82132 95.5917 -8.40053e-06 102.862 -8.40053e-06C104.228 -0.107781 105.6 0.0839451 106.882 0.561427C108.164 1.03891 109.322 1.79036 110.274 2.76173C111.227 3.73309 111.949 4.90033 112.39 6.1797C112.831 7.45906 112.979 8.8188 112.824 10.1613ZM95.2205 10.1613C93.7178 14.9351 92.6818 19.8397 92.1267 24.8082C92.0163 25.5295 92.0732 26.2662 92.2932 26.9627C92.5132 27.6592 92.8907 28.2974 93.3971 28.8291C93.9034 29.3609 94.5255 29.7724 95.2165 30.0326C95.9075 30.2928 96.6493 30.3949 97.3861 30.3313C99.1144 30.4067 100.817 29.9014 102.217 28.8981C103.616 27.8949 104.629 26.453 105.09 24.8082C106.651 20.0496 107.688 15.139 108.183 10.1613C108.306 9.43795 108.258 8.69627 108.043 7.99419C107.828 7.29211 107.451 6.64862 106.942 6.11395C106.432 5.57928 105.805 5.16791 105.108 4.91193C104.411 4.65594 103.664 4.56228 102.924 4.63824C101.196 4.56284 99.4925 5.06811 98.0932 6.07139C96.6939 7.07468 95.681 8.51659 95.2205 10.1613Z" fill="#1A171B"/>
<path d="M130.891 21.7872L135.903 33.1386C136.213 33.8099 135.656 34.6032 134.666 34.6032H132.253C131.448 34.6032 131.263 34.2066 131.015 33.6268L125.756 21.4211C125.718 21.2433 125.616 21.0855 125.467 20.9784C125.318 20.8712 125.135 20.8224 124.952 20.8413H122.322C122.176 20.847 122.035 20.897 121.919 20.9843C121.803 21.0717 121.716 21.1922 121.672 21.3295L119.042 33.5353C118.982 33.8025 118.834 34.0427 118.622 34.2191C118.409 34.3955 118.144 34.4982 117.867 34.5117H115.144C115.026 34.5059 114.911 34.4746 114.807 34.4199C114.702 34.3653 114.612 34.2886 114.541 34.1953C114.47 34.1021 114.421 33.9947 114.397 33.8806C114.373 33.7665 114.374 33.6486 114.402 33.5353L121.332 1.25102C121.399 0.981326 121.552 0.740335 121.77 0.56424C121.987 0.388145 122.257 0.286445 122.538 0.274536H130.458C136.646 0.274536 139.987 3.47858 139.987 8.605C139.937 11.065 139.166 13.458 137.766 15.4944C136.366 17.5307 134.397 19.123 132.098 20.0784C131.046 20.6277 130.52 20.8718 130.891 21.7872ZM125.756 5.03487C125.613 5.02618 125.472 5.07201 125.363 5.16291C125.253 5.25381 125.184 5.38273 125.168 5.52301L122.91 15.7759C122.91 16.081 122.91 16.2641 123.312 16.2641H128.014C129.011 16.2938 130.002 16.115 130.923 15.7393C131.844 15.3636 132.674 14.7996 133.358 14.0846C134.042 13.3696 134.564 12.5197 134.891 11.591C135.218 10.6622 135.341 9.67577 135.254 8.69654C135.254 5.8587 132.902 5.03487 130.458 5.03487H125.756Z" fill="#1A171B"/>
<path d="M146.36 33.6269C146.299 33.8941 146.152 34.1343 145.939 34.3107C145.727 34.4871 145.462 34.5898 145.184 34.6033H142.462C142.342 34.6033 142.223 34.5758 142.116 34.5228C142.009 34.4698 141.915 34.3929 141.843 34.2982C141.771 34.2034 141.722 34.0934 141.701 33.9769C141.679 33.8604 141.686 33.7406 141.719 33.6269L148.649 1.3426C148.71 1.07537 148.858 0.835188 149.07 0.658802C149.282 0.482416 149.548 0.379643 149.825 0.366211H157.683C163.871 0.366211 167.181 3.57016 167.181 8.69658C167.231 11.8749 166.002 14.9433 163.764 17.2307C161.526 19.5181 158.461 20.8382 155.239 20.9023H149.639C149.492 20.9034 149.349 20.9517 149.232 21.0397C149.115 21.1277 149.03 21.2508 148.99 21.3906L146.36 33.6269ZM153.042 5.03491C152.901 5.03316 152.764 5.08151 152.657 5.17115C152.549 5.26078 152.477 5.38564 152.455 5.52306L150.227 15.7759C150.227 16.0811 150.227 16.2642 150.629 16.2642H155.332C156.327 16.289 157.316 16.1068 158.235 15.7295C159.153 15.3521 159.981 14.7882 160.664 14.0742C161.347 13.3603 161.87 12.5124 162.199 11.5858C162.527 10.6592 162.654 9.67477 162.571 8.69658C162.571 5.85874 160.189 5.03491 157.776 5.03491H153.042Z" fill="#1A171B"/>
</g>
<defs>
<clipPath id="clip0_37632_763">
<rect width="167" height="35" fill="white" transform="translate(0.273438)"/>
</clipPath>
</defs>
</svg>
